<svg width="729" height="729" viewBox="0 0 729 729" fill="none" xmlns="http://www.w3.org/2000/svg">
<rect width="729" height="729" rx="123" fill="#F8F8F8"/>
<path fill-rule="evenodd" clip-rule="evenodd" d="M271.992 265.672C275.507 264.739 278.858 263.541 282.048 262.078C284.909 261.906 287.54 261.186 289.952 259.923C292.105 260.071 294.022 259.593 295.697 258.483C302.267 257.586 308.731 256.63 315.095 255.609L453.028 255.609L453.028 160L557.919 160C558.037 186.599 557.919 213.199 557.56 239.792C557.247 263.051 534.168 277.316 519.841 292.271C508.824 303.774 497.57 315.034 486.075 326.059C481.256 330.68 476.349 335.213 471.448 339.751C466.894 343.965 462.618 348.704 457.18 351.785C447.454 357.291 436.183 357.769 425.277 357.899C416.932 358 408.586 358.1 400.24 358.2C383.578 358.407 366.916 358.613 350.26 358.826C342.61 358.926 334.96 359.026 327.31 359.127C310.253 360.413 296.481 367.844 286 381.412C274.363 400.481 274.127 419.65 285.281 438.919C295.685 452.576 309.457 460.36 326.591 462.284C332.595 462.951 338.983 462.438 345.028 462.491C351.074 462.544 357.567 462.585 363.837 462.615C376.376 462.668 388.922 462.662 401.461 462.597C409.736 462.556 418.017 462.45 426.292 462.391C433.328 462.337 439.498 461.907 445.125 457.044C449.371 453.373 452.532 447.683 452.851 442.006C453.234 435.053 453.14 427.93 453.04 420.954C452.857 408.489 452.951 396.019 453.329 383.56C453.488 378.361 452.845 372.53 455.546 367.861C457.003 365.347 459.138 363.258 461.568 361.659C463.757 360.225 465.709 359.829 468.257 359.746C469.301 359.711 470.345 359.682 471.389 359.646C473.477 359.581 475.565 359.528 477.652 359.475C481.828 359.375 485.998 359.292 490.174 359.239C498.526 359.127 506.872 359.103 515.223 359.168C523.522 359.233 531.815 359.392 540.107 359.64L544.932 359.782C545.421 359.794 545.917 359.811 546.4 359.906C549.585 360.514 552.328 363.559 554.021 366.138C555.36 368.174 556.345 370.411 557.194 372.689C558.043 374.967 557.949 377.357 557.961 379.783C557.984 383.962 557.996 388.14 557.996 392.324C557.996 400.681 557.943 409.044 557.843 417.401C557.742 425.758 557.583 434.115 557.377 442.466C557.324 444.638 557.265 446.81 557.206 448.982C555.106 455.391 550.8 459.705 544.277 461.918C541.936 462.715 538.114 462.066 535.625 462.125C532.487 462.196 529.355 462.261 526.217 462.326C519.948 462.45 513.678 462.556 507.408 462.65C501.139 462.745 494.869 462.821 488.593 462.88C485.727 462.91 482.86 462.945 479.994 462.998C477.127 463.052 474.119 462.644 471.259 463.276C461.751 465.371 454.88 474.176 451.601 482.775C451.017 484.31 450.657 485.986 450.521 487.81C449.625 500.062 450.185 512.627 450.138 524.908C450.114 531.152 450.108 537.402 450.126 543.647C450.138 548.946 450.698 553.804 447.218 558.23C446.145 559.599 444.841 560.791 443.396 561.759C433.771 568.198 420.765 566.634 409.807 566.729C397.279 566.841 384.752 566.888 372.23 566.876C348.714 566.852 324.857 568.08 301.583 563.288C284.201 559.711 267.315 553.691 251.868 544.915C236.421 536.139 223.262 525.215 211.755 512.237C202.065 501.307 193.819 489.143 186.859 476.307C163.232 422.022 167.779 370.263 200.507 321.031C219.216 295.918 243.044 277.469 271.992 265.678L271.992 265.672Z" fill="#2D0C0C"/>
</svg>
